<svg viewBox="0 0 600 300" id="amdfc-controller" width="350px" style="position: absolute; z-index: 999999;" class="connected">
    <style>
        .amdfc-int:hover {
        fill: #bbb;
        }
        .amdfc-int.amdfc-active {
        fill: fuchsia;
        }
    </style>
    <g fill="#ddd" stroke="#222" stroke-width="3">
        <g id="control-group-bumper">
        <rect x="150" y="10" width="100" height="100" rx="5" ry="5" class="amdfc-int" id="control-l"></rect>
        <rect x="350" y="10" width="100" height="100" rx="5" ry="5" class="amdfc-int" id="control-r"></rect>
        </g>

        <path d="M135,50 C 45,50 20,180 20,240 20,300 80,330 175,220 175,220 
        425,220 425,220 520,330 580,300 580,240 580,180 555,50 465,50 Z"></path>

        <g id="control-group-c">
        <circle cx="480" cy="160" r="15" class="amdfc-int" id="control-c-down"></circle>
        <circle cx="510" cy="130" r="15" class="amdfc-int" id="control-c-right"></circle>
        <circle cx="450" cy="130" r="15" class="amdfc-int" id="control-c-left"></circle>
        <circle cx="480" cy="100" r="15" class="amdfc-int" id="control-c-up"></circle>
        </g>

        <circle cx="420" cy="160" r="15" class="amdfc-int" id="control-b"></circle>
        <circle cx="450" cy="190" r="15" class="amdfc-int" id="control-a"></circle>

        <rect x="105" y="85" width="30" height="90" fill="#aaa" stroke="#aaa"></rect>
        <rect x="75" y="115" width="90" height="30" fill="#aaa" stroke="#aaa"></rect>
        
        <rect x="275" y="10" width="50" height="18" rx="9" ry="9" class="amdfc-int" id="control-start"></rect>
        
        <g id="control-group-d-pad">
        <circle cx="120" cy="160" r="15" class="amdfc-int" id="control-d-d"></circle>
        <circle cx="90" cy="130" r="15" class="amdfc-int" id="control-d-left"></circle>
        <circle cx="150" cy="130" r="15" class="amdfc-int" id="control-d-r"></circle>
        <circle cx="120" cy="100" r="15" class="amdfc-int" id="control-d-u"></circle>
        </g>

        <circle cx="300" cy="90" r="20" class="amdfc-int" id="control-z"></circle>
    </g>
    <g dominant-baseline="middle" text-anchor="middle" fill="#222" font-size="16" font-family="Arial,sans-serif" style="user-select: none; pointer-events: none;">
        
        <text x="480" y="130">C</text>

        <text x="450" y="191">A</text>
        <text x="420" y="161">B</text>
        
        <text x="225" y="30">L</text>
        <text x="375" y="30">R</text>

        <text x="120" y="100">U</text>
        <text x="120" y="160">D</text>
        <text x="90" y="130">L</text>
        <text x="150" y="130">R</text>

        <text x="300" y="91">Z</text>
        <text x="300" y="40" font-size="10">START</text>
    </g>
</svg>